<mxfile host="app.diagrams.net" agent="Mozilla/5.0 (Windows NT 10.0; Win64; x64) AppleWebKit/537.36 (KHTML, like Gecko) Chrome/132.0.0.0 Safari/537.36 Edg/132.0.0.0" version="27.0.6">
  <diagram name="Page-1" id="Saj36R8tPmT9eAfQ4arQ">
    <mxGraphModel dx="1357" dy="1964" grid="1" gridSize="10" guides="1" tooltips="1" connect="1" arrows="1" fold="1" page="1" pageScale="1" pageWidth="850" pageHeight="1100" math="0" shadow="0">
      <root>
        <mxCell id="0" />
        <mxCell id="1" parent="0" />
        <mxCell id="g8V7ilS0cDU_Rap2-0AZ-1" value="FACULTY" style="rounded=0;whiteSpace=wrap;html=1;" parent="1" vertex="1">
          <mxGeometry x="180" y="-10" width="120" height="60" as="geometry" />
        </mxCell>
        <mxCell id="g8V7ilS0cDU_Rap2-0AZ-2" value="HOSTEL" style="rounded=0;whiteSpace=wrap;html=1;" parent="1" vertex="1">
          <mxGeometry x="-270" y="385" width="120" height="60" as="geometry" />
        </mxCell>
        <mxCell id="g8V7ilS0cDU_Rap2-0AZ-3" value="COURSE&amp;nbsp;" style="rounded=0;whiteSpace=wrap;html=1;" parent="1" vertex="1">
          <mxGeometry x="-120" y="560" width="120" height="60" as="geometry" />
        </mxCell>
        <mxCell id="g8V7ilS0cDU_Rap2-0AZ-4" value="SUBJECT&amp;nbsp;" style="rounded=0;whiteSpace=wrap;html=1;" parent="1" vertex="1">
          <mxGeometry x="555" y="160" width="120" height="60" as="geometry" />
        </mxCell>
        <mxCell id="g8V7ilS0cDU_Rap2-0AZ-5" value="&amp;nbsp;EXAMS&amp;nbsp;" style="rounded=0;whiteSpace=wrap;html=1;" parent="1" vertex="1">
          <mxGeometry x="500" y="420" width="120" height="60" as="geometry" />
        </mxCell>
        <mxCell id="g8V7ilS0cDU_Rap2-0AZ-6" value="DEPARTMENT" style="rounded=0;whiteSpace=wrap;html=1;" parent="1" vertex="1">
          <mxGeometry x="195" y="610" width="120" height="60" as="geometry" />
        </mxCell>
        <mxCell id="g8V7ilS0cDU_Rap2-0AZ-7" value="STUDENT" style="rounded=0;whiteSpace=wrap;html=1;" parent="1" vertex="1">
          <mxGeometry x="-150" y="130" width="120" height="60" as="geometry" />
        </mxCell>
        <mxCell id="g8V7ilS0cDU_Rap2-0AZ-46" style="edgeStyle=orthogonalEdgeStyle;rounded=0;orthogonalLoop=1;jettySize=auto;html=1;exitX=1;exitY=0.5;exitDx=0;exitDy=0;entryX=0;entryY=0;entryDx=0;entryDy=0;endArrow=none;startFill=0;" parent="1" source="g8V7ilS0cDU_Rap2-0AZ-8" target="g8V7ilS0cDU_Rap2-0AZ-1" edge="1">
          <mxGeometry relative="1" as="geometry">
            <Array as="points">
              <mxPoint x="180" y="-25" />
            </Array>
          </mxGeometry>
        </mxCell>
        <mxCell id="g8V7ilS0cDU_Rap2-0AZ-8" value="Department" style="ellipse;whiteSpace=wrap;html=1;" parent="1" vertex="1">
          <mxGeometry x="40" y="-50" width="90" height="50" as="geometry" />
        </mxCell>
        <mxCell id="g8V7ilS0cDU_Rap2-0AZ-47" style="edgeStyle=orthogonalEdgeStyle;rounded=0;orthogonalLoop=1;jettySize=auto;html=1;exitX=0.5;exitY=1;exitDx=0;exitDy=0;entryX=0.75;entryY=0;entryDx=0;entryDy=0;endArrow=none;startFill=0;" parent="1" source="g8V7ilS0cDU_Rap2-0AZ-9" target="g8V7ilS0cDU_Rap2-0AZ-1" edge="1">
          <mxGeometry relative="1" as="geometry" />
        </mxCell>
        <mxCell id="g8V7ilS0cDU_Rap2-0AZ-9" value="Mobile_no" style="ellipse;whiteSpace=wrap;html=1;" parent="1" vertex="1">
          <mxGeometry x="270" y="-100" width="90" height="50" as="geometry" />
        </mxCell>
        <mxCell id="g8V7ilS0cDU_Rap2-0AZ-48" style="edgeStyle=orthogonalEdgeStyle;rounded=0;orthogonalLoop=1;jettySize=auto;html=1;exitX=0.5;exitY=1;exitDx=0;exitDy=0;entryX=0.5;entryY=0;entryDx=0;entryDy=0;endArrow=none;startFill=0;" parent="1" source="g8V7ilS0cDU_Rap2-0AZ-10" target="g8V7ilS0cDU_Rap2-0AZ-7" edge="1">
          <mxGeometry relative="1" as="geometry">
            <Array as="points">
              <mxPoint x="-135" y="110" />
              <mxPoint x="-90" y="110" />
            </Array>
          </mxGeometry>
        </mxCell>
        <mxCell id="g8V7ilS0cDU_Rap2-0AZ-10" value="S_id" style="ellipse;whiteSpace=wrap;html=1;fontStyle=4" parent="1" vertex="1">
          <mxGeometry x="-180" y="50" width="90" height="50" as="geometry" />
        </mxCell>
        <mxCell id="g8V7ilS0cDU_Rap2-0AZ-41" style="edgeStyle=orthogonalEdgeStyle;rounded=0;orthogonalLoop=1;jettySize=auto;html=1;exitX=0.5;exitY=1;exitDx=0;exitDy=0;entryX=0.5;entryY=0;entryDx=0;entryDy=0;endArrow=none;startFill=0;" parent="1" source="g8V7ilS0cDU_Rap2-0AZ-11" target="g8V7ilS0cDU_Rap2-0AZ-1" edge="1">
          <mxGeometry relative="1" as="geometry" />
        </mxCell>
        <mxCell id="g8V7ilS0cDU_Rap2-0AZ-11" value="&amp;nbsp;F_id" style="ellipse;whiteSpace=wrap;html=1;fontStyle=4" parent="1" vertex="1">
          <mxGeometry x="195" y="-160" width="90" height="50" as="geometry" />
        </mxCell>
        <mxCell id="g8V7ilS0cDU_Rap2-0AZ-44" style="edgeStyle=orthogonalEdgeStyle;rounded=0;orthogonalLoop=1;jettySize=auto;html=1;entryX=0.25;entryY=0;entryDx=0;entryDy=0;endArrow=none;startFill=0;" parent="1" source="g8V7ilS0cDU_Rap2-0AZ-12" target="g8V7ilS0cDU_Rap2-0AZ-1" edge="1">
          <mxGeometry relative="1" as="geometry" />
        </mxCell>
        <mxCell id="g8V7ilS0cDU_Rap2-0AZ-12" value="&amp;nbsp;Name" style="ellipse;whiteSpace=wrap;html=1;" parent="1" vertex="1">
          <mxGeometry x="120" y="-100" width="90" height="50" as="geometry" />
        </mxCell>
        <mxCell id="g8V7ilS0cDU_Rap2-0AZ-43" style="edgeStyle=orthogonalEdgeStyle;rounded=0;orthogonalLoop=1;jettySize=auto;html=1;exitX=0;exitY=0.5;exitDx=0;exitDy=0;entryX=1;entryY=0;entryDx=0;entryDy=0;endArrow=none;startFill=0;" parent="1" source="g8V7ilS0cDU_Rap2-0AZ-13" target="g8V7ilS0cDU_Rap2-0AZ-1" edge="1">
          <mxGeometry relative="1" as="geometry">
            <Array as="points">
              <mxPoint x="300" y="-25" />
            </Array>
          </mxGeometry>
        </mxCell>
        <mxCell id="g8V7ilS0cDU_Rap2-0AZ-13" value="Salary" style="ellipse;whiteSpace=wrap;html=1;" parent="1" vertex="1">
          <mxGeometry x="340" y="-50" width="90" height="50" as="geometry" />
        </mxCell>
        <mxCell id="g8V7ilS0cDU_Rap2-0AZ-49" style="edgeStyle=orthogonalEdgeStyle;rounded=0;orthogonalLoop=1;jettySize=auto;html=1;exitX=0.5;exitY=1;exitDx=0;exitDy=0;entryX=0.25;entryY=0;entryDx=0;entryDy=0;endArrow=none;startFill=0;" parent="1" source="g8V7ilS0cDU_Rap2-0AZ-14" target="g8V7ilS0cDU_Rap2-0AZ-7" edge="1">
          <mxGeometry relative="1" as="geometry">
            <Array as="points">
              <mxPoint x="-200" y="70" />
              <mxPoint x="-200" y="120" />
              <mxPoint x="-120" y="120" />
            </Array>
          </mxGeometry>
        </mxCell>
        <mxCell id="g8V7ilS0cDU_Rap2-0AZ-14" value="Phone_no" style="ellipse;whiteSpace=wrap;html=1;" parent="1" vertex="1">
          <mxGeometry x="-245" width="90" height="50" as="geometry" />
        </mxCell>
        <mxCell id="g8V7ilS0cDU_Rap2-0AZ-50" style="edgeStyle=orthogonalEdgeStyle;rounded=0;orthogonalLoop=1;jettySize=auto;html=1;entryX=0;entryY=0;entryDx=0;entryDy=0;endArrow=none;startFill=0;" parent="1" source="g8V7ilS0cDU_Rap2-0AZ-15" target="g8V7ilS0cDU_Rap2-0AZ-7" edge="1">
          <mxGeometry relative="1" as="geometry">
            <Array as="points">
              <mxPoint x="-280" y="75" />
              <mxPoint x="-280" y="130" />
            </Array>
          </mxGeometry>
        </mxCell>
        <mxCell id="g8V7ilS0cDU_Rap2-0AZ-15" value="Name" style="ellipse;whiteSpace=wrap;html=1;" parent="1" vertex="1">
          <mxGeometry x="-390" y="50" width="90" height="50" as="geometry" />
        </mxCell>
        <mxCell id="g8V7ilS0cDU_Rap2-0AZ-53" style="edgeStyle=orthogonalEdgeStyle;rounded=0;orthogonalLoop=1;jettySize=auto;html=1;exitX=1;exitY=1;exitDx=0;exitDy=0;entryX=0.5;entryY=0;entryDx=0;entryDy=0;endArrow=none;startFill=0;" parent="1" source="g8V7ilS0cDU_Rap2-0AZ-16" target="g8V7ilS0cDU_Rap2-0AZ-15" edge="1">
          <mxGeometry relative="1" as="geometry">
            <Array as="points">
              <mxPoint x="-393" y="40" />
              <mxPoint x="-345" y="40" />
            </Array>
          </mxGeometry>
        </mxCell>
        <mxCell id="g8V7ilS0cDU_Rap2-0AZ-16" value="&amp;nbsp;F_name" style="ellipse;whiteSpace=wrap;html=1;" parent="1" vertex="1">
          <mxGeometry x="-470" y="-10" width="90" height="50" as="geometry" />
        </mxCell>
        <mxCell id="g8V7ilS0cDU_Rap2-0AZ-54" style="edgeStyle=orthogonalEdgeStyle;rounded=0;orthogonalLoop=1;jettySize=auto;html=1;exitX=1;exitY=0.5;exitDx=0;exitDy=0;entryX=0;entryY=0.5;entryDx=0;entryDy=0;endArrow=none;startFill=0;" parent="1" source="g8V7ilS0cDU_Rap2-0AZ-17" target="g8V7ilS0cDU_Rap2-0AZ-15" edge="1">
          <mxGeometry relative="1" as="geometry" />
        </mxCell>
        <mxCell id="g8V7ilS0cDU_Rap2-0AZ-17" value="&amp;nbsp;L_name" style="ellipse;whiteSpace=wrap;html=1;" parent="1" vertex="1">
          <mxGeometry x="-500" y="50" width="90" height="50" as="geometry" />
        </mxCell>
        <mxCell id="g8V7ilS0cDU_Rap2-0AZ-51" style="edgeStyle=orthogonalEdgeStyle;rounded=0;orthogonalLoop=1;jettySize=auto;html=1;exitX=1;exitY=0.5;exitDx=0;exitDy=0;entryX=0;entryY=0.25;entryDx=0;entryDy=0;endArrow=none;startFill=0;" parent="1" source="g8V7ilS0cDU_Rap2-0AZ-18" target="g8V7ilS0cDU_Rap2-0AZ-7" edge="1">
          <mxGeometry relative="1" as="geometry" />
        </mxCell>
        <mxCell id="g8V7ilS0cDU_Rap2-0AZ-18" value="DOB" style="ellipse;whiteSpace=wrap;html=1;" parent="1" vertex="1">
          <mxGeometry x="-380" y="120" width="90" height="50" as="geometry" />
        </mxCell>
        <mxCell id="g8V7ilS0cDU_Rap2-0AZ-135" style="edgeStyle=orthogonalEdgeStyle;rounded=0;orthogonalLoop=1;jettySize=auto;html=1;exitX=1;exitY=0.5;exitDx=0;exitDy=0;entryX=0;entryY=0.5;entryDx=0;entryDy=0;endArrow=none;startFill=0;" parent="1" source="g8V7ilS0cDU_Rap2-0AZ-19" target="g8V7ilS0cDU_Rap2-0AZ-7" edge="1">
          <mxGeometry relative="1" as="geometry" />
        </mxCell>
        <mxCell id="g8V7ilS0cDU_Rap2-0AZ-19" value="Age" style="ellipse;whiteSpace=wrap;html=1;dashed=1;" parent="1" vertex="1">
          <mxGeometry x="-300" y="170" width="90" height="50" as="geometry" />
        </mxCell>
        <mxCell id="g8V7ilS0cDU_Rap2-0AZ-79" style="edgeStyle=orthogonalEdgeStyle;rounded=0;orthogonalLoop=1;jettySize=auto;html=1;entryX=0.5;entryY=1;entryDx=0;entryDy=0;endArrow=none;endFill=1;startFill=0;" parent="1" source="g8V7ilS0cDU_Rap2-0AZ-21" target="g8V7ilS0cDU_Rap2-0AZ-6" edge="1">
          <mxGeometry relative="1" as="geometry" />
        </mxCell>
        <mxCell id="g8V7ilS0cDU_Rap2-0AZ-21" value="&amp;nbsp;D_name" style="ellipse;whiteSpace=wrap;html=1;" parent="1" vertex="1">
          <mxGeometry x="195" y="700" width="90" height="50" as="geometry" />
        </mxCell>
        <mxCell id="g8V7ilS0cDU_Rap2-0AZ-60" style="edgeStyle=orthogonalEdgeStyle;rounded=0;orthogonalLoop=1;jettySize=auto;html=1;entryX=0;entryY=0.25;entryDx=0;entryDy=0;endArrow=none;startFill=0;" parent="1" source="g8V7ilS0cDU_Rap2-0AZ-22" target="g8V7ilS0cDU_Rap2-0AZ-2" edge="1">
          <mxGeometry relative="1" as="geometry" />
        </mxCell>
        <mxCell id="g8V7ilS0cDU_Rap2-0AZ-22" value="State" style="ellipse;whiteSpace=wrap;html=1;" parent="1" vertex="1">
          <mxGeometry x="-465" y="375" width="90" height="50" as="geometry" />
        </mxCell>
        <mxCell id="g8V7ilS0cDU_Rap2-0AZ-23" value="&amp;nbsp;Address" style="ellipse;whiteSpace=wrap;html=1;" parent="1" vertex="1">
          <mxGeometry x="-380" y="475" width="90" height="50" as="geometry" />
        </mxCell>
        <mxCell id="g8V7ilS0cDU_Rap2-0AZ-64" style="edgeStyle=orthogonalEdgeStyle;rounded=0;orthogonalLoop=1;jettySize=auto;html=1;entryX=0;entryY=1;entryDx=0;entryDy=0;endArrow=none;startFill=0;" parent="1" source="g8V7ilS0cDU_Rap2-0AZ-24" target="g8V7ilS0cDU_Rap2-0AZ-2" edge="1">
          <mxGeometry relative="1" as="geometry">
            <Array as="points">
              <mxPoint x="-270" y="462" />
            </Array>
          </mxGeometry>
        </mxCell>
        <mxCell id="g8V7ilS0cDU_Rap2-0AZ-24" value="Pin_code" style="ellipse;whiteSpace=wrap;html=1;" parent="1" vertex="1">
          <mxGeometry x="-464" y="437" width="90" height="50" as="geometry" />
        </mxCell>
        <mxCell id="g8V7ilS0cDU_Rap2-0AZ-63" style="edgeStyle=orthogonalEdgeStyle;rounded=0;orthogonalLoop=1;jettySize=auto;html=1;entryX=0;entryY=0.75;entryDx=0;entryDy=0;endArrow=none;startFill=0;" parent="1" source="g8V7ilS0cDU_Rap2-0AZ-25" target="g8V7ilS0cDU_Rap2-0AZ-2" edge="1">
          <mxGeometry relative="1" as="geometry" />
        </mxCell>
        <mxCell id="g8V7ilS0cDU_Rap2-0AZ-25" value="&amp;nbsp;No_of_seats" style="ellipse;whiteSpace=wrap;html=1;" parent="1" vertex="1">
          <mxGeometry x="-549" y="405" width="90" height="50" as="geometry" />
        </mxCell>
        <mxCell id="g8V7ilS0cDU_Rap2-0AZ-61" style="edgeStyle=orthogonalEdgeStyle;rounded=0;orthogonalLoop=1;jettySize=auto;html=1;entryX=0;entryY=0;entryDx=0;entryDy=0;endArrow=none;startFill=0;" parent="1" source="g8V7ilS0cDU_Rap2-0AZ-26" target="g8V7ilS0cDU_Rap2-0AZ-2" edge="1">
          <mxGeometry relative="1" as="geometry">
            <Array as="points">
              <mxPoint x="-270" y="370" />
            </Array>
          </mxGeometry>
        </mxCell>
        <mxCell id="g8V7ilS0cDU_Rap2-0AZ-26" value="City" style="ellipse;whiteSpace=wrap;html=1;" parent="1" vertex="1">
          <mxGeometry x="-545" y="345" width="90" height="50" as="geometry" />
        </mxCell>
        <mxCell id="g8V7ilS0cDU_Rap2-0AZ-56" style="edgeStyle=orthogonalEdgeStyle;rounded=0;orthogonalLoop=1;jettySize=auto;html=1;exitX=1;exitY=0.5;exitDx=0;exitDy=0;entryX=0.25;entryY=0;entryDx=0;entryDy=0;endArrow=none;startFill=0;" parent="1" source="g8V7ilS0cDU_Rap2-0AZ-27" target="g8V7ilS0cDU_Rap2-0AZ-2" edge="1">
          <mxGeometry relative="1" as="geometry" />
        </mxCell>
        <mxCell id="g8V7ilS0cDU_Rap2-0AZ-27" value="Hostel_name" style="ellipse;whiteSpace=wrap;html=1;" parent="1" vertex="1">
          <mxGeometry x="-440" y="315" width="90" height="50" as="geometry" />
        </mxCell>
        <mxCell id="g8V7ilS0cDU_Rap2-0AZ-55" style="edgeStyle=orthogonalEdgeStyle;rounded=0;orthogonalLoop=1;jettySize=auto;html=1;entryX=0.5;entryY=0;entryDx=0;entryDy=0;endArrow=none;startFill=0;" parent="1" source="g8V7ilS0cDU_Rap2-0AZ-28" target="g8V7ilS0cDU_Rap2-0AZ-2" edge="1">
          <mxGeometry relative="1" as="geometry">
            <Array as="points">
              <mxPoint x="-210" y="320" />
            </Array>
          </mxGeometry>
        </mxCell>
        <mxCell id="g8V7ilS0cDU_Rap2-0AZ-28" value="Hostel_id" style="ellipse;whiteSpace=wrap;html=1;fontStyle=4" parent="1" vertex="1">
          <mxGeometry x="-320" y="285" width="90" height="50" as="geometry" />
        </mxCell>
        <mxCell id="g8V7ilS0cDU_Rap2-0AZ-69" style="edgeStyle=orthogonalEdgeStyle;rounded=0;orthogonalLoop=1;jettySize=auto;html=1;entryX=0.75;entryY=1;entryDx=0;entryDy=0;endArrow=none;startFill=0;" parent="1" source="g8V7ilS0cDU_Rap2-0AZ-30" target="g8V7ilS0cDU_Rap2-0AZ-3" edge="1">
          <mxGeometry relative="1" as="geometry">
            <Array as="points">
              <mxPoint x="5" y="630" />
              <mxPoint x="-30" y="630" />
            </Array>
          </mxGeometry>
        </mxCell>
        <mxCell id="g8V7ilS0cDU_Rap2-0AZ-30" value="&amp;nbsp;Duration" style="ellipse;whiteSpace=wrap;html=1;" parent="1" vertex="1">
          <mxGeometry x="-40" y="640" width="90" height="50" as="geometry" />
        </mxCell>
        <mxCell id="g8V7ilS0cDU_Rap2-0AZ-70" style="edgeStyle=orthogonalEdgeStyle;rounded=0;orthogonalLoop=1;jettySize=auto;html=1;entryX=0.5;entryY=1;entryDx=0;entryDy=0;endArrow=none;startFill=0;" parent="1" source="g8V7ilS0cDU_Rap2-0AZ-31" target="g8V7ilS0cDU_Rap2-0AZ-3" edge="1">
          <mxGeometry relative="1" as="geometry" />
        </mxCell>
        <mxCell id="g8V7ilS0cDU_Rap2-0AZ-31" value="Course-name" style="ellipse;whiteSpace=wrap;html=1;" parent="1" vertex="1">
          <mxGeometry x="-105" y="680" width="90" height="50" as="geometry" />
        </mxCell>
        <mxCell id="g8V7ilS0cDU_Rap2-0AZ-68" style="edgeStyle=orthogonalEdgeStyle;rounded=0;orthogonalLoop=1;jettySize=auto;html=1;entryX=0.25;entryY=1;entryDx=0;entryDy=0;endArrow=none;startFill=0;" parent="1" source="g8V7ilS0cDU_Rap2-0AZ-32" target="g8V7ilS0cDU_Rap2-0AZ-3" edge="1">
          <mxGeometry relative="1" as="geometry">
            <Array as="points">
              <mxPoint x="-125" y="630" />
              <mxPoint x="-90" y="630" />
            </Array>
          </mxGeometry>
        </mxCell>
        <mxCell id="g8V7ilS0cDU_Rap2-0AZ-32" value="Course_id" style="ellipse;whiteSpace=wrap;html=1;fontStyle=4" parent="1" vertex="1">
          <mxGeometry x="-170" y="640" width="90" height="50" as="geometry" />
        </mxCell>
        <mxCell id="g8V7ilS0cDU_Rap2-0AZ-73" style="edgeStyle=orthogonalEdgeStyle;rounded=0;orthogonalLoop=1;jettySize=auto;html=1;exitX=0.5;exitY=0;exitDx=0;exitDy=0;entryX=0.75;entryY=1;entryDx=0;entryDy=0;endArrow=none;startFill=0;" parent="1" source="g8V7ilS0cDU_Rap2-0AZ-33" target="g8V7ilS0cDU_Rap2-0AZ-4" edge="1">
          <mxGeometry relative="1" as="geometry" />
        </mxCell>
        <mxCell id="g8V7ilS0cDU_Rap2-0AZ-33" value="Subject_name" style="ellipse;whiteSpace=wrap;html=1;" parent="1" vertex="1">
          <mxGeometry x="635" y="250" width="90" height="50" as="geometry" />
        </mxCell>
        <mxCell id="g8V7ilS0cDU_Rap2-0AZ-71" style="edgeStyle=orthogonalEdgeStyle;rounded=0;orthogonalLoop=1;jettySize=auto;html=1;entryX=0.25;entryY=1;entryDx=0;entryDy=0;endArrow=none;startFill=0;" parent="1" source="g8V7ilS0cDU_Rap2-0AZ-34" target="g8V7ilS0cDU_Rap2-0AZ-4" edge="1">
          <mxGeometry relative="1" as="geometry" />
        </mxCell>
        <mxCell id="g8V7ilS0cDU_Rap2-0AZ-34" value="&amp;nbsp;Subject_id" style="ellipse;whiteSpace=wrap;html=1;fontStyle=4" parent="1" vertex="1">
          <mxGeometry x="510" y="250" width="90" height="50" as="geometry" />
        </mxCell>
        <mxCell id="g8V7ilS0cDU_Rap2-0AZ-75" style="edgeStyle=orthogonalEdgeStyle;rounded=0;orthogonalLoop=1;jettySize=auto;html=1;entryX=1;entryY=0.75;entryDx=0;entryDy=0;endArrow=none;startFill=0;" parent="1" source="g8V7ilS0cDU_Rap2-0AZ-35" target="g8V7ilS0cDU_Rap2-0AZ-5" edge="1">
          <mxGeometry relative="1" as="geometry" />
        </mxCell>
        <mxCell id="g8V7ilS0cDU_Rap2-0AZ-35" value="Date" style="ellipse;whiteSpace=wrap;html=1;" parent="1" vertex="1">
          <mxGeometry x="740" y="460" width="90" height="50" as="geometry" />
        </mxCell>
        <mxCell id="g8V7ilS0cDU_Rap2-0AZ-76" style="edgeStyle=orthogonalEdgeStyle;rounded=0;orthogonalLoop=1;jettySize=auto;html=1;entryX=1;entryY=1;entryDx=0;entryDy=0;endArrow=none;startFill=0;" parent="1" source="g8V7ilS0cDU_Rap2-0AZ-36" target="g8V7ilS0cDU_Rap2-0AZ-5" edge="1">
          <mxGeometry relative="1" as="geometry">
            <Array as="points">
              <mxPoint x="690" y="500" />
              <mxPoint x="620" y="500" />
            </Array>
          </mxGeometry>
        </mxCell>
        <mxCell id="g8V7ilS0cDU_Rap2-0AZ-36" value="Time" style="ellipse;whiteSpace=wrap;html=1;" parent="1" vertex="1">
          <mxGeometry x="650" y="510" width="90" height="50" as="geometry" />
        </mxCell>
        <mxCell id="g8V7ilS0cDU_Rap2-0AZ-74" style="edgeStyle=orthogonalEdgeStyle;rounded=0;orthogonalLoop=1;jettySize=auto;html=1;entryX=1;entryY=0.25;entryDx=0;entryDy=0;endArrow=none;startFill=0;" parent="1" source="g8V7ilS0cDU_Rap2-0AZ-37" target="g8V7ilS0cDU_Rap2-0AZ-5" edge="1">
          <mxGeometry relative="1" as="geometry" />
        </mxCell>
        <mxCell id="g8V7ilS0cDU_Rap2-0AZ-37" value="Exam_code" style="ellipse;whiteSpace=wrap;html=1;fontStyle=4" parent="1" vertex="1">
          <mxGeometry x="670" y="410" width="90" height="50" as="geometry" />
        </mxCell>
        <mxCell id="g8V7ilS0cDU_Rap2-0AZ-77" style="edgeStyle=orthogonalEdgeStyle;rounded=0;orthogonalLoop=1;jettySize=auto;html=1;exitX=0.5;exitY=0;exitDx=0;exitDy=0;entryX=0.75;entryY=1;entryDx=0;entryDy=0;endArrow=none;startFill=0;" parent="1" source="g8V7ilS0cDU_Rap2-0AZ-38" target="g8V7ilS0cDU_Rap2-0AZ-5" edge="1">
          <mxGeometry relative="1" as="geometry" />
        </mxCell>
        <mxCell id="g8V7ilS0cDU_Rap2-0AZ-38" value="Room" style="ellipse;whiteSpace=wrap;html=1;" parent="1" vertex="1">
          <mxGeometry x="550" y="510" width="90" height="50" as="geometry" />
        </mxCell>
        <mxCell id="g8V7ilS0cDU_Rap2-0AZ-78" style="edgeStyle=orthogonalEdgeStyle;rounded=0;orthogonalLoop=1;jettySize=auto;html=1;exitX=0;exitY=0;exitDx=0;exitDy=0;endArrow=none;startFill=0;" parent="1" source="g8V7ilS0cDU_Rap2-0AZ-39" edge="1">
          <mxGeometry relative="1" as="geometry">
            <mxPoint x="285" y="670" as="targetPoint" />
          </mxGeometry>
        </mxCell>
        <mxCell id="g8V7ilS0cDU_Rap2-0AZ-39" value="Department_id" style="ellipse;whiteSpace=wrap;html=1;fontStyle=4" parent="1" vertex="1">
          <mxGeometry x="300" y="690" width="90" height="50" as="geometry" />
        </mxCell>
        <mxCell id="g8V7ilS0cDU_Rap2-0AZ-65" style="edgeStyle=orthogonalEdgeStyle;rounded=0;orthogonalLoop=1;jettySize=auto;html=1;entryX=0.25;entryY=1;entryDx=0;entryDy=0;endArrow=none;startFill=0;" parent="1" target="g8V7ilS0cDU_Rap2-0AZ-2" edge="1">
          <mxGeometry relative="1" as="geometry">
            <mxPoint x="-295" y="500" as="sourcePoint" />
          </mxGeometry>
        </mxCell>
        <mxCell id="g8V7ilS0cDU_Rap2-0AZ-82" value="Teaches" style="rhombus;whiteSpace=wrap;html=1;fillColor=#ffe6cc;strokeColor=#d79b00;" parent="1" vertex="1">
          <mxGeometry x="40" y="50" width="80" height="80" as="geometry" />
        </mxCell>
        <mxCell id="g8V7ilS0cDU_Rap2-0AZ-83" value="&amp;nbsp;handles" style="rhombus;whiteSpace=wrap;html=1;fillColor=#f8cecc;strokeColor=#b85450;" parent="1" vertex="1">
          <mxGeometry x="400" y="40" width="80" height="80" as="geometry" />
        </mxCell>
        <mxCell id="g8V7ilS0cDU_Rap2-0AZ-84" value="" style="endArrow=none;html=1;rounded=0;exitX=1;exitY=0;exitDx=0;exitDy=0;entryX=0;entryY=0.5;entryDx=0;entryDy=0;fillColor=#ffe6cc;strokeColor=#d79b00;" parent="1" source="g8V7ilS0cDU_Rap2-0AZ-82" target="g8V7ilS0cDU_Rap2-0AZ-1" edge="1">
          <mxGeometry width="50" height="50" relative="1" as="geometry">
            <mxPoint x="100" y="70" as="sourcePoint" />
            <mxPoint x="150" y="20" as="targetPoint" />
          </mxGeometry>
        </mxCell>
        <mxCell id="g8V7ilS0cDU_Rap2-0AZ-86" value="1" style="edgeLabel;html=1;align=center;verticalAlign=middle;resizable=0;points=[];" parent="g8V7ilS0cDU_Rap2-0AZ-84" vertex="1" connectable="0">
          <mxGeometry x="0.6764" relative="1" as="geometry">
            <mxPoint as="offset" />
          </mxGeometry>
        </mxCell>
        <mxCell id="g8V7ilS0cDU_Rap2-0AZ-85" value="" style="endArrow=none;html=1;rounded=0;entryX=0;entryY=1;entryDx=0;entryDy=0;exitX=1;exitY=0.5;exitDx=0;exitDy=0;fillColor=#ffe6cc;strokeColor=#d79b00;" parent="1" source="g8V7ilS0cDU_Rap2-0AZ-7" target="g8V7ilS0cDU_Rap2-0AZ-82" edge="1">
          <mxGeometry width="50" height="50" relative="1" as="geometry">
            <mxPoint x="10" y="180" as="sourcePoint" />
            <mxPoint x="60" y="130" as="targetPoint" />
          </mxGeometry>
        </mxCell>
        <mxCell id="g8V7ilS0cDU_Rap2-0AZ-87" value="m" style="edgeLabel;html=1;align=center;verticalAlign=middle;resizable=0;points=[];" parent="g8V7ilS0cDU_Rap2-0AZ-85" vertex="1" connectable="0">
          <mxGeometry x="-0.6057" y="4" relative="1" as="geometry">
            <mxPoint as="offset" />
          </mxGeometry>
        </mxCell>
        <mxCell id="g8V7ilS0cDU_Rap2-0AZ-88" value="" style="endArrow=none;html=1;rounded=0;entryX=0;entryY=0;entryDx=0;entryDy=0;exitX=1;exitY=1;exitDx=0;exitDy=0;shape=link;fillColor=#f8cecc;strokeColor=#b85450;" parent="1" source="g8V7ilS0cDU_Rap2-0AZ-83" target="g8V7ilS0cDU_Rap2-0AZ-4" edge="1">
          <mxGeometry width="50" height="50" relative="1" as="geometry">
            <mxPoint x="490" y="160" as="sourcePoint" />
            <mxPoint x="540" y="110" as="targetPoint" />
          </mxGeometry>
        </mxCell>
        <mxCell id="g8V7ilS0cDU_Rap2-0AZ-91" value="m" style="edgeLabel;html=1;align=center;verticalAlign=middle;resizable=0;points=[];" parent="g8V7ilS0cDU_Rap2-0AZ-88" vertex="1" connectable="0">
          <mxGeometry x="0.6301" y="1" relative="1" as="geometry">
            <mxPoint as="offset" />
          </mxGeometry>
        </mxCell>
        <mxCell id="g8V7ilS0cDU_Rap2-0AZ-89" value="" style="endArrow=none;html=1;rounded=0;entryX=1;entryY=0.5;entryDx=0;entryDy=0;exitX=0;exitY=0;exitDx=0;exitDy=0;fillColor=#f8cecc;strokeColor=#b85450;" parent="1" source="g8V7ilS0cDU_Rap2-0AZ-83" target="g8V7ilS0cDU_Rap2-0AZ-1" edge="1">
          <mxGeometry width="50" height="50" relative="1" as="geometry">
            <mxPoint x="330" y="90" as="sourcePoint" />
            <mxPoint x="380" y="40" as="targetPoint" />
          </mxGeometry>
        </mxCell>
        <mxCell id="g8V7ilS0cDU_Rap2-0AZ-123" value="1" style="edgeLabel;html=1;align=center;verticalAlign=middle;resizable=0;points=[];" parent="g8V7ilS0cDU_Rap2-0AZ-89" vertex="1" connectable="0">
          <mxGeometry x="0.635" y="3" relative="1" as="geometry">
            <mxPoint as="offset" />
          </mxGeometry>
        </mxCell>
        <mxCell id="g8V7ilS0cDU_Rap2-0AZ-92" value="&#xa;Enroll&#xa;&#xa;" style="rhombus;whiteSpace=wrap;html=1;fillColor=#e1d5e7;strokeColor=#9673a6;" parent="1" vertex="1">
          <mxGeometry x="-110" y="335" width="80" height="80" as="geometry" />
        </mxCell>
        <mxCell id="g8V7ilS0cDU_Rap2-0AZ-95" value="" style="endArrow=none;html=1;rounded=0;entryX=0.5;entryY=1;entryDx=0;entryDy=0;exitX=0.5;exitY=0;exitDx=0;exitDy=0;fillColor=#e1d5e7;strokeColor=#9673a6;" parent="1" source="g8V7ilS0cDU_Rap2-0AZ-92" target="g8V7ilS0cDU_Rap2-0AZ-7" edge="1">
          <mxGeometry width="50" height="50" relative="1" as="geometry">
            <mxPoint x="-80" y="350" as="sourcePoint" />
            <mxPoint x="-30" y="300" as="targetPoint" />
          </mxGeometry>
        </mxCell>
        <mxCell id="g8V7ilS0cDU_Rap2-0AZ-117" value="m" style="edgeLabel;html=1;align=center;verticalAlign=middle;resizable=0;points=[];" parent="g8V7ilS0cDU_Rap2-0AZ-95" vertex="1" connectable="0">
          <mxGeometry x="0.6695" relative="1" as="geometry">
            <mxPoint as="offset" />
          </mxGeometry>
        </mxCell>
        <mxCell id="g8V7ilS0cDU_Rap2-0AZ-96" value="" style="endArrow=none;html=1;rounded=0;entryX=0.5;entryY=1;entryDx=0;entryDy=0;exitX=0.5;exitY=0;exitDx=0;exitDy=0;shape=link;fillColor=#e1d5e7;strokeColor=#9673a6;" parent="1" source="g8V7ilS0cDU_Rap2-0AZ-3" target="g8V7ilS0cDU_Rap2-0AZ-92" edge="1">
          <mxGeometry width="50" height="50" relative="1" as="geometry">
            <mxPoint x="-90" y="550" as="sourcePoint" />
            <mxPoint x="-40" y="500" as="targetPoint" />
          </mxGeometry>
        </mxCell>
        <mxCell id="g8V7ilS0cDU_Rap2-0AZ-97" value="m" style="edgeLabel;html=1;align=center;verticalAlign=middle;resizable=0;points=[];" parent="g8V7ilS0cDU_Rap2-0AZ-96" vertex="1" connectable="0">
          <mxGeometry x="-0.7226" y="2" relative="1" as="geometry">
            <mxPoint as="offset" />
          </mxGeometry>
        </mxCell>
        <mxCell id="g8V7ilS0cDU_Rap2-0AZ-98" value="Belong to" style="rhombus;whiteSpace=wrap;html=1;fillColor=#d5e8d4;strokeColor=#82b366;" parent="1" vertex="1">
          <mxGeometry x="30" y="325" width="80" height="80" as="geometry" />
        </mxCell>
        <mxCell id="g8V7ilS0cDU_Rap2-0AZ-99" value="" style="endArrow=none;html=1;rounded=0;entryX=0.75;entryY=1;entryDx=0;entryDy=0;shape=link;fillColor=#d5e8d4;strokeColor=#82b366;" parent="1" source="g8V7ilS0cDU_Rap2-0AZ-98" target="g8V7ilS0cDU_Rap2-0AZ-7" edge="1">
          <mxGeometry width="50" height="50" relative="1" as="geometry">
            <mxPoint y="310" as="sourcePoint" />
            <mxPoint x="50" y="260" as="targetPoint" />
          </mxGeometry>
        </mxCell>
        <mxCell id="g8V7ilS0cDU_Rap2-0AZ-102" value="1" style="edgeLabel;html=1;align=center;verticalAlign=middle;resizable=0;points=[];" parent="g8V7ilS0cDU_Rap2-0AZ-99" vertex="1" connectable="0">
          <mxGeometry x="0.8014" y="2" relative="1" as="geometry">
            <mxPoint x="1" as="offset" />
          </mxGeometry>
        </mxCell>
        <mxCell id="g8V7ilS0cDU_Rap2-0AZ-100" value="" style="endArrow=none;html=1;rounded=0;entryX=1;entryY=1;entryDx=0;entryDy=0;exitX=0.5;exitY=0;exitDx=0;exitDy=0;fillColor=#d5e8d4;strokeColor=#82b366;" parent="1" source="g8V7ilS0cDU_Rap2-0AZ-6" target="g8V7ilS0cDU_Rap2-0AZ-98" edge="1">
          <mxGeometry width="50" height="50" relative="1" as="geometry">
            <mxPoint x="90" y="490" as="sourcePoint" />
            <mxPoint x="140" y="440" as="targetPoint" />
          </mxGeometry>
        </mxCell>
        <mxCell id="g8V7ilS0cDU_Rap2-0AZ-101" value="1" style="edgeLabel;html=1;align=center;verticalAlign=middle;resizable=0;points=[];" parent="g8V7ilS0cDU_Rap2-0AZ-100" vertex="1" connectable="0">
          <mxGeometry x="-0.8096" y="4" relative="1" as="geometry">
            <mxPoint as="offset" />
          </mxGeometry>
        </mxCell>
        <mxCell id="g8V7ilS0cDU_Rap2-0AZ-103" value="Take" style="rhombus;whiteSpace=wrap;html=1;fillColor=#1ba1e2;fontColor=#ffffff;strokeColor=#006EAF;" parent="1" vertex="1">
          <mxGeometry x="150" y="285" width="80" height="80" as="geometry" />
        </mxCell>
        <mxCell id="g8V7ilS0cDU_Rap2-0AZ-104" value="" style="endArrow=none;html=1;rounded=0;entryX=0;entryY=0;entryDx=0;entryDy=0;exitX=1;exitY=1;exitDx=0;exitDy=0;fillColor=#1ba1e2;strokeColor=#006EAF;" parent="1" source="g8V7ilS0cDU_Rap2-0AZ-7" target="g8V7ilS0cDU_Rap2-0AZ-103" edge="1">
          <mxGeometry width="50" height="50" relative="1" as="geometry">
            <mxPoint x="80" y="310" as="sourcePoint" />
            <mxPoint x="130" y="260" as="targetPoint" />
          </mxGeometry>
        </mxCell>
        <mxCell id="g8V7ilS0cDU_Rap2-0AZ-126" value="m" style="edgeLabel;html=1;align=center;verticalAlign=middle;resizable=0;points=[];" parent="g8V7ilS0cDU_Rap2-0AZ-104" vertex="1" connectable="0">
          <mxGeometry x="-0.8538" y="3" relative="1" as="geometry">
            <mxPoint as="offset" />
          </mxGeometry>
        </mxCell>
        <mxCell id="g8V7ilS0cDU_Rap2-0AZ-105" value="" style="endArrow=none;html=1;rounded=0;entryX=1;entryY=1;entryDx=0;entryDy=0;exitX=0;exitY=0;exitDx=0;exitDy=0;fillColor=#1ba1e2;strokeColor=#006EAF;" parent="1" source="g8V7ilS0cDU_Rap2-0AZ-5" target="g8V7ilS0cDU_Rap2-0AZ-103" edge="1">
          <mxGeometry width="50" height="50" relative="1" as="geometry">
            <mxPoint x="200" y="390" as="sourcePoint" />
            <mxPoint x="250" y="340" as="targetPoint" />
          </mxGeometry>
        </mxCell>
        <mxCell id="g8V7ilS0cDU_Rap2-0AZ-106" value="m" style="edgeLabel;html=1;align=center;verticalAlign=middle;resizable=0;points=[];" parent="g8V7ilS0cDU_Rap2-0AZ-105" vertex="1" connectable="0">
          <mxGeometry x="-0.8478" relative="1" as="geometry">
            <mxPoint as="offset" />
          </mxGeometry>
        </mxCell>
        <mxCell id="g8V7ilS0cDU_Rap2-0AZ-107" value="Live" style="rhombus;whiteSpace=wrap;html=1;fillColor=#dae8fc;strokeColor=#6c8ebf;" parent="1" vertex="1">
          <mxGeometry x="-190" y="235" width="80" height="80" as="geometry" />
        </mxCell>
        <mxCell id="g8V7ilS0cDU_Rap2-0AZ-108" value="" style="endArrow=none;html=1;rounded=0;entryX=0.25;entryY=1;entryDx=0;entryDy=0;exitX=0.5;exitY=0;exitDx=0;exitDy=0;fillColor=#dae8fc;strokeColor=#6c8ebf;" parent="1" source="g8V7ilS0cDU_Rap2-0AZ-107" target="g8V7ilS0cDU_Rap2-0AZ-7" edge="1">
          <mxGeometry width="50" height="50" relative="1" as="geometry">
            <mxPoint x="-160" y="240" as="sourcePoint" />
            <mxPoint x="-110" y="190" as="targetPoint" />
          </mxGeometry>
        </mxCell>
        <mxCell id="g8V7ilS0cDU_Rap2-0AZ-111" value="1" style="edgeLabel;html=1;align=center;verticalAlign=middle;resizable=0;points=[];" parent="g8V7ilS0cDU_Rap2-0AZ-108" vertex="1" connectable="0">
          <mxGeometry x="0.3333" relative="1" as="geometry">
            <mxPoint as="offset" />
          </mxGeometry>
        </mxCell>
        <mxCell id="g8V7ilS0cDU_Rap2-0AZ-109" value="" style="endArrow=none;html=1;rounded=0;entryX=0.5;entryY=1;entryDx=0;entryDy=0;exitX=0.75;exitY=0;exitDx=0;exitDy=0;fillColor=#dae8fc;strokeColor=#6c8ebf;" parent="1" source="g8V7ilS0cDU_Rap2-0AZ-2" target="g8V7ilS0cDU_Rap2-0AZ-107" edge="1">
          <mxGeometry width="50" height="50" relative="1" as="geometry">
            <mxPoint x="-190" y="380" as="sourcePoint" />
            <mxPoint x="-140" y="330" as="targetPoint" />
          </mxGeometry>
        </mxCell>
        <mxCell id="g8V7ilS0cDU_Rap2-0AZ-110" value="1" style="edgeLabel;html=1;align=center;verticalAlign=middle;resizable=0;points=[];" parent="g8V7ilS0cDU_Rap2-0AZ-109" vertex="1" connectable="0">
          <mxGeometry x="-0.4966" y="-2" relative="1" as="geometry">
            <mxPoint as="offset" />
          </mxGeometry>
        </mxCell>
        <mxCell id="g8V7ilS0cDU_Rap2-0AZ-112" value="&amp;nbsp;handled" style="rhombus;whiteSpace=wrap;html=1;fillColor=#60a917;fontColor=#ffffff;strokeColor=#2D7600;" parent="1" vertex="1">
          <mxGeometry x="70" y="550" width="80" height="80" as="geometry" />
        </mxCell>
        <mxCell id="g8V7ilS0cDU_Rap2-0AZ-114" value="" style="endArrow=none;html=1;rounded=0;entryX=0;entryY=0.5;entryDx=0;entryDy=0;exitX=1;exitY=0.5;exitDx=0;exitDy=0;shape=link;fillColor=#60a917;strokeColor=#2D7600;" parent="1" source="g8V7ilS0cDU_Rap2-0AZ-3" target="g8V7ilS0cDU_Rap2-0AZ-112" edge="1">
          <mxGeometry width="50" height="50" relative="1" as="geometry">
            <mxPoint x="10" y="610" as="sourcePoint" />
            <mxPoint x="60" y="560" as="targetPoint" />
          </mxGeometry>
        </mxCell>
        <mxCell id="g8V7ilS0cDU_Rap2-0AZ-118" value="m" style="edgeLabel;html=1;align=center;verticalAlign=middle;resizable=0;points=[];" parent="g8V7ilS0cDU_Rap2-0AZ-114" vertex="1" connectable="0">
          <mxGeometry x="-0.5429" y="-1" relative="1" as="geometry">
            <mxPoint as="offset" />
          </mxGeometry>
        </mxCell>
        <mxCell id="g8V7ilS0cDU_Rap2-0AZ-115" value="" style="endArrow=none;html=1;rounded=0;entryX=1;entryY=1;entryDx=0;entryDy=0;exitX=0;exitY=0.5;exitDx=0;exitDy=0;fillColor=#60a917;strokeColor=#2D7600;" parent="1" source="g8V7ilS0cDU_Rap2-0AZ-6" target="g8V7ilS0cDU_Rap2-0AZ-112" edge="1">
          <mxGeometry width="50" height="50" relative="1" as="geometry">
            <mxPoint x="130" y="660" as="sourcePoint" />
            <mxPoint x="180" y="610" as="targetPoint" />
          </mxGeometry>
        </mxCell>
        <mxCell id="g8V7ilS0cDU_Rap2-0AZ-132" value="m" style="edgeLabel;html=1;align=center;verticalAlign=middle;resizable=0;points=[];" parent="g8V7ilS0cDU_Rap2-0AZ-115" vertex="1" connectable="0">
          <mxGeometry x="-0.6" relative="1" as="geometry">
            <mxPoint as="offset" />
          </mxGeometry>
        </mxCell>
        <mxCell id="g8V7ilS0cDU_Rap2-0AZ-120" value="take" style="rhombus;whiteSpace=wrap;html=1;fillColor=#6a00ff;fontColor=#ffffff;strokeColor=#3700CC;" parent="1" vertex="1">
          <mxGeometry x="210" y="140" width="80" height="80" as="geometry" />
        </mxCell>
        <mxCell id="g8V7ilS0cDU_Rap2-0AZ-121" value="" style="endArrow=none;html=1;rounded=0;entryX=0;entryY=0.5;entryDx=0;entryDy=0;exitX=1;exitY=0.75;exitDx=0;exitDy=0;shape=link;fillColor=#6a00ff;strokeColor=#3700CC;" parent="1" source="g8V7ilS0cDU_Rap2-0AZ-7" target="g8V7ilS0cDU_Rap2-0AZ-120" edge="1">
          <mxGeometry width="50" height="50" relative="1" as="geometry">
            <mxPoint x="100" y="200" as="sourcePoint" />
            <mxPoint x="150" y="150" as="targetPoint" />
          </mxGeometry>
        </mxCell>
        <mxCell id="g8V7ilS0cDU_Rap2-0AZ-124" value="m" style="edgeLabel;html=1;align=center;verticalAlign=middle;resizable=0;points=[];" parent="g8V7ilS0cDU_Rap2-0AZ-121" vertex="1" connectable="0">
          <mxGeometry x="-0.7248" y="-1" relative="1" as="geometry">
            <mxPoint as="offset" />
          </mxGeometry>
        </mxCell>
        <mxCell id="g8V7ilS0cDU_Rap2-0AZ-122" value="" style="endArrow=none;html=1;rounded=0;entryX=0;entryY=0.5;entryDx=0;entryDy=0;fillColor=#6a00ff;strokeColor=#3700CC;" parent="1" source="g8V7ilS0cDU_Rap2-0AZ-120" target="g8V7ilS0cDU_Rap2-0AZ-4" edge="1">
          <mxGeometry width="50" height="50" relative="1" as="geometry">
            <mxPoint x="360" y="220" as="sourcePoint" />
            <mxPoint x="410" y="170" as="targetPoint" />
          </mxGeometry>
        </mxCell>
        <mxCell id="g8V7ilS0cDU_Rap2-0AZ-125" value="m" style="edgeLabel;html=1;align=center;verticalAlign=middle;resizable=0;points=[];" parent="g8V7ilS0cDU_Rap2-0AZ-122" vertex="1" connectable="0">
          <mxGeometry x="0.8492" y="2" relative="1" as="geometry">
            <mxPoint as="offset" />
          </mxGeometry>
        </mxCell>
        <mxCell id="g8V7ilS0cDU_Rap2-0AZ-127" value="Conducted" style="rhombus;whiteSpace=wrap;html=1;fillColor=#fff2cc;strokeColor=#d6b656;" parent="1" vertex="1">
          <mxGeometry x="360" y="525" width="80" height="80" as="geometry" />
        </mxCell>
        <mxCell id="g8V7ilS0cDU_Rap2-0AZ-128" value="" style="endArrow=none;html=1;rounded=0;entryX=0;entryY=1;entryDx=0;entryDy=0;exitX=1;exitY=0;exitDx=0;exitDy=0;shape=link;fillColor=#fff2cc;strokeColor=#d6b656;" parent="1" source="g8V7ilS0cDU_Rap2-0AZ-127" target="g8V7ilS0cDU_Rap2-0AZ-5" edge="1">
          <mxGeometry width="50" height="50" relative="1" as="geometry">
            <mxPoint x="450" y="540" as="sourcePoint" />
            <mxPoint x="500" y="490" as="targetPoint" />
          </mxGeometry>
        </mxCell>
        <mxCell id="g8V7ilS0cDU_Rap2-0AZ-130" value="m" style="edgeLabel;html=1;align=center;verticalAlign=middle;resizable=0;points=[];" parent="g8V7ilS0cDU_Rap2-0AZ-128" vertex="1" connectable="0">
          <mxGeometry x="0.5755" y="-2" relative="1" as="geometry">
            <mxPoint as="offset" />
          </mxGeometry>
        </mxCell>
        <mxCell id="g8V7ilS0cDU_Rap2-0AZ-129" value="" style="endArrow=none;html=1;rounded=0;entryX=0.25;entryY=0.688;entryDx=0;entryDy=0;entryPerimeter=0;exitX=1;exitY=0.5;exitDx=0;exitDy=0;fillColor=#fff2cc;strokeColor=#d6b656;" parent="1" source="g8V7ilS0cDU_Rap2-0AZ-6" target="g8V7ilS0cDU_Rap2-0AZ-127" edge="1">
          <mxGeometry width="50" height="50" relative="1" as="geometry">
            <mxPoint x="330" y="640" as="sourcePoint" />
            <mxPoint x="380" y="590" as="targetPoint" />
          </mxGeometry>
        </mxCell>
        <mxCell id="g8V7ilS0cDU_Rap2-0AZ-131" value="1" style="edgeLabel;html=1;align=center;verticalAlign=middle;resizable=0;points=[];" parent="g8V7ilS0cDU_Rap2-0AZ-129" vertex="1" connectable="0">
          <mxGeometry x="-0.5219" y="2" relative="1" as="geometry">
            <mxPoint as="offset" />
          </mxGeometry>
        </mxCell>
      </root>
    </mxGraphModel>
  </diagram>
</mxfile>
